<svg xmlns="http://www.w3.org/2000/svg" viewBox="0 0 19.62 29.35"><defs><style>.cls-1,.cls-2{fill:#fff;}.cls-2{stroke:#418fde;stroke-miterlimit:10;stroke-width:0.25px;}.cls-3{fill:#418fde;}</style></defs><g id="Layer_2" data-name="Layer 2"><g id="Layer_1-2" data-name="Layer 1"><path class="cls-1" d="M9.81,0C4.39,0,0,4.66,0,10.4c0,4.94,7.25,15.73,9.29,18.67a.62.62,0,0,0,.86.17.58.58,0,0,0,.18-.17c2-2.94,9.29-13.73,9.29-18.67C19.62,4.66,15.23,0,9.81,0Zm0,14.63a4.91,4.91,0,1,1,4.9-4.9,4.9,4.9,0,0,1-4.9,4.9Z"/><rect class="cls-2" x="2.35" y="2.27" width="14.92" height="14.92" rx="4.45"/><path class="cls-3" d="M15.33,4.73a.8.8,0,0,0-.79.79V9.73L13.28,11a.25.25,0,0,1-.35.11l-.07-.06a.32.32,0,0,1,0-.46L13.92,9.5a.56.56,0,0,0,0-.79.54.54,0,0,0-.76,0h0l-2.07,2.11a1.69,1.69,0,0,0-.48,1.28h0V16H13V13.5a1.69,1.69,0,0,0,.43-.31l2.49-2.53a.79.79,0,0,0,.23-.56V5.52A.79.79,0,0,0,15.33,4.73ZM8.54,10.82,6.47,8.71a.55.55,0,0,0-.77,0h0a.57.57,0,0,0,0,.79l1.07,1.09a.32.32,0,0,1,0,.46.32.32,0,0,1-.45,0h0L5.07,9.73V5.52a.79.79,0,1,0-1.57,0V10.1a.82.82,0,0,0,.22.56l2.49,2.53a1.94,1.94,0,0,0,.44.31V16H9V12.1H9A1.72,1.72,0,0,0,8.54,10.82Z"/><circle class="cls-3" cx="9.81" cy="5.78" r="2.37"/></g></g></svg>