<svg xmlns="http://www.w3.org/2000/svg" viewBox="0 0 22.57 33.64"><defs><style>.cls-1{fill:#fff;stroke:#418fde;stroke-miterlimit:10;stroke-width:0.25px;}.cls-2{fill:#418fde;}</style></defs><g id="Layer_2" data-name="Layer 2"><g id="Layer_1-2" data-name="Layer 1"><path class="cls-1" d="M11.28.12C5.12.12.12,5.43.12,12c0,5.63,8.26,17.91,10.57,21.24a.71.71,0,0,0,1,.2.76.76,0,0,0,.2-.2C14.19,29.86,22.44,17.58,22.44,12,22.44,5.43,17.45.12,11.28.12Zm0,16.65a5.58,5.58,0,1,1,5.58-5.58,5.58,5.58,0,0,1-5.58,5.58Z"/><rect class="cls-1" x="3.82" y="5.01" width="14.92" height="14.92" rx="4.45"/><path class="cls-2" d="M16.81,7.47a.79.79,0,0,0-.79.79v4.21l-1.26,1.27a.28.28,0,0,1-.35.11.27.27,0,0,1-.08-.07.33.33,0,0,1,0-.45l1.07-1.09a.57.57,0,0,0,0-.79.55.55,0,0,0-.77,0h0l-2.06,2.11a1.64,1.64,0,0,0-.48,1.27h0v4h2.37V16.24a1.71,1.71,0,0,0,.44-.32l2.49-2.53a.79.79,0,0,0,.23-.56V8.26A.8.8,0,0,0,16.81,7.47ZM10,13.56,7.94,11.45a.54.54,0,0,0-.76,0h0a.57.57,0,0,0,0,.79l1.07,1.09a.33.33,0,0,1,0,.45.32.32,0,0,1-.45,0h0L6.55,12.47V8.26A.79.79,0,0,0,5,8.26v4.57a.79.79,0,0,0,.23.56l2.49,2.53a1.71,1.71,0,0,0,.44.32v2.54H10.5v-4h0A1.64,1.64,0,0,0,10,13.56Z"/><circle class="cls-2" cx="11.28" cy="8.52" r="2.37"/></g></g></svg>