<svg id="Layer_1" data-name="Layer 1" xmlns="http://www.w3.org/2000/svg" viewBox="0 0 25.39 25.39"><defs><style>.cls-1{fill:#fff;stroke:#418fde;stroke-miterlimit:10;}.cls-2{fill:#418fde;}</style></defs><rect class="cls-1" x="0.5" y="0.5" width="24.39" height="24.39" rx="4.45"/><path class="cls-2" d="M31.05,17.7a1,1,0,0,0-1,1v5.35l-1.6,1.61a.33.33,0,0,1-.44.14.39.39,0,0,1-.1-.08.41.41,0,0,1,0-.58l1.36-1.38a.72.72,0,0,0,0-1,.69.69,0,0,0-1,0v0l-2.63,2.67A2.17,2.17,0,0,0,25,27.06h0v5h3V28.85a2.15,2.15,0,0,0,.55-.4l3.17-3.22a1,1,0,0,0,.29-.71V18.71A1,1,0,0,0,31.05,17.7Zm-8.64,7.74-2.63-2.67a.68.68,0,0,0-1,0v0a.7.7,0,0,0,0,1l1.35,1.38a.41.41,0,0,1-.57.59h0L18,24.06V18.71a1,1,0,1,0-2,0v5.81a1,1,0,0,0,.29.71l3.17,3.22a2.15,2.15,0,0,0,.55.4v3.23h3v-5h0A2.17,2.17,0,0,0,22.41,25.44Z" transform="translate(-11.33 -11.3)"/><circle class="cls-2" cx="12.7" cy="7.74" r="3.01"/></svg>